<svg width="14" height="14" viewBox="0 0 14 14" fill="none" xmlns="http://www.w3.org/2000/svg">
<path d="M12.4398 3.56C10.5198 0.6 6.59982 -0.28 3.55982 1.56C0.599824 3.4 -0.360176 7.4 1.55982 10.36L1.71982 10.6L1.07982 13L3.47982 12.36L3.71982 12.52C4.75982 13.08 5.87982 13.4 6.99982 13.4C8.19982 13.4 9.39982 13.08 10.4398 12.44C13.3998 10.52 14.2798 6.6 12.4398 3.56ZM10.7598 9.72C10.4398 10.2 10.0398 10.52 9.47982 10.6C9.15982 10.6 8.75982 10.76 7.15982 10.12C5.79982 9.48 4.67982 8.44 3.87982 7.24C3.39982 6.68 3.15982 5.96 3.07982 5.24C3.07982 4.6 3.31982 4.04 3.71982 3.64C3.87982 3.48 4.03982 3.4 4.19982 3.4H4.59982C4.75982 3.4 4.91982 3.4 4.99982 3.72C5.15982 4.12 5.55982 5.08 5.55982 5.16C5.63982 5.24 5.63982 5.4 5.55982 5.48C5.63982 5.64 5.55982 5.8 5.47982 5.88C5.39982 5.96 5.31982 6.12 5.23982 6.2C5.07982 6.28 4.99982 6.44 5.07982 6.6C5.39982 7.08 5.79982 7.56 6.19982 7.96C6.67982 8.36 7.15982 8.68 7.71982 8.92C7.87982 9 8.03982 9 8.11982 8.84C8.19982 8.68 8.59982 8.28 8.75982 8.12C8.91982 7.96 8.99982 7.96 9.15982 8.04L10.4398 8.68C10.5998 8.76 10.7598 8.84 10.8398 8.92C10.9198 9.16 10.9198 9.48 10.7598 9.72Z" fill="white"/>
</svg>
