<svg width="574" height="251" viewBox="0 0 574 251" fill="none" xmlns="http://www.w3.org/2000/svg">
<rect width="574" height="251" fill="url(#paint0_linear_4883_119712)"/>
<path d="M183.189 94.01C175.187 94.0202 167.494 97.1019 161.697 102.619C155.901 108.136 152.444 115.668 152.039 123.66C153.502 121.52 155.375 119.691 157.549 118.28C158.888 113.338 161.628 108.889 165.438 105.469C169.249 102.049 173.967 99.8037 179.024 99.0047C184.082 98.2058 189.262 98.8868 193.942 100.966C198.621 103.045 202.599 106.433 205.396 110.721C208.193 115.01 209.69 120.016 209.706 125.136C209.722 130.256 208.256 135.272 205.486 139.578C202.716 143.884 198.76 147.297 194.094 149.405C189.428 151.514 184.251 152.227 179.189 151.46C174.597 150.772 170.269 148.883 166.643 145.984C163.016 143.084 160.221 139.278 158.539 134.95V134.87L158.479 134.74C158.346 134.464 158.239 134.176 158.159 133.88L158.109 133.7C158.014 133.29 157.967 132.871 157.969 132.45C157.973 131.476 158.238 130.522 158.736 129.685C159.233 128.848 159.946 128.159 160.799 127.69L161.429 127.37C161.79 127.23 162.166 127.133 162.549 127.08H162.699L163.019 127.01C164.761 126.639 166.538 126.451 168.319 126.45C170.765 126.429 173.201 126.766 175.549 127.45L170.869 139.2H175.869L179.869 129.2C180.379 129.47 180.869 129.75 181.359 130.04L181.469 130.11C184.04 131.69 186.303 133.723 188.149 136.11C188.814 136.948 189.422 137.83 189.969 138.75L190.259 139.25H195.259L183.529 107.58L179.259 118.32L177.329 123.19C172.362 121.633 167.075 121.399 161.989 122.51H161.289L161.129 122.67C160.646 122.782 160.171 122.929 159.709 123.11C157.726 123.881 156.041 125.265 154.899 127.06L154.779 127.25C153.818 128.822 153.306 130.627 153.299 132.47C153.279 133.283 153.36 134.096 153.539 134.89V135C153.535 135.063 153.535 135.127 153.539 135.19C153.539 135.28 153.589 135.38 153.619 135.47L153.709 135.75C153.809 136.03 153.909 136.28 153.999 136.53V136.62C156.255 142.363 160.168 147.306 165.239 150.82C166.208 151.483 167.209 152.097 168.239 152.66C169.418 153.289 170.633 153.847 171.879 154.33C175.437 155.685 179.212 156.38 183.019 156.38C187.731 156.393 192.384 155.325 196.619 153.26C202.973 150.182 208.094 145.04 211.146 138.674C214.198 132.308 215 125.094 213.421 118.213C211.842 111.332 207.975 105.191 202.453 100.792C196.93 96.394 190.079 93.9994 183.019 94L183.189 94.01ZM183.329 120.48L184.329 123.11L185.989 127.58C184.588 126.554 183.099 125.654 181.539 124.89L182.909 121.45L183.329 120.48Z" fill="white"/>
<path d="M227.211 135.79C227.211 128.42 232.081 124.27 242.451 124.27H251.321V122.27C251.321 116.54 248.681 113.9 242.951 113.9C237.731 113.9 234.651 116.04 234.441 120.55H228.291C228.931 112.55 233.941 108.46 243.171 108.46C252.901 108.46 257.621 112.97 257.621 122.12V146.24H252.251L252.041 141.24C250.566 143.137 248.662 144.657 246.486 145.676C244.309 146.694 241.922 147.182 239.521 147.1C231.931 147.09 227.211 143.02 227.211 135.79ZM251.321 134.7V129.47H242.671C236.231 129.47 233.511 131.47 233.511 135.63C233.511 139.49 235.801 141.63 240.451 141.63C242.747 141.69 245.009 141.063 246.946 139.828C248.883 138.593 250.407 136.807 251.321 134.7Z" fill="white"/>
<path d="M268.75 94H275.04V146.24H268.75V94Z" fill="white"/>
<path d="M288.241 134.7V114.47H281.871V109.32H288.381L288.881 99.5898H294.541V109.32H303.621V114.47H294.541V134.79C294.541 139.58 295.611 140.79 299.831 140.79H304.051V146.23H298.331C291.241 146.24 288.241 142.8 288.241 134.7Z" fill="white"/>
<path d="M309.201 135.79C309.201 128.42 314.071 124.27 324.441 124.27H333.311V122.27C333.311 116.54 330.671 113.9 324.941 113.9C319.721 113.9 316.641 116.04 316.431 120.55H310.271C310.921 112.55 315.931 108.46 325.161 108.46C334.891 108.46 339.611 112.97 339.611 122.12V146.24H334.241L334.031 141.24C332.556 143.137 330.652 144.657 328.476 145.676C326.3 146.694 323.913 147.182 321.511 147.1C313.921 147.09 309.201 143.02 309.201 135.79ZM333.311 134.7V129.47H324.661C318.221 129.47 315.501 131.47 315.501 135.63C315.501 139.49 317.791 141.63 322.441 141.63C324.737 141.689 326.998 141.061 328.935 139.826C330.872 138.591 332.396 136.806 333.311 134.7Z" fill="white"/>
<path d="M350.75 109.32H356.11L356.4 116.18C358.26 110.96 361.62 108.6 366.99 108.6H369.49V114.83H367.63C361.63 114.83 358.26 117.9 357.04 124.99V146.24H350.75V109.32Z" fill="white"/>
<path d="M376.021 95.7002H382.891V102.7H376.021V95.7002ZM376.311 109.37H382.611V146.29H376.311V109.37Z" fill="white"/>
<path d="M391.691 135.79C391.691 128.42 396.561 124.27 406.931 124.27H415.801V122.27C415.801 116.54 413.161 113.9 407.431 113.9C402.211 113.9 399.131 116.04 398.921 120.55H392.751C393.391 112.55 398.401 108.46 407.631 108.46C417.361 108.46 422.081 112.97 422.081 122.12V146.24H416.751L416.541 141.24C415.066 143.137 413.162 144.657 410.986 145.676C408.81 146.694 406.423 147.182 404.021 147.1C396.411 147.09 391.691 143.02 391.691 135.79ZM415.801 134.7V129.47H407.151C400.711 129.47 397.991 131.47 397.991 135.63C397.991 139.49 400.281 141.63 404.931 141.63C407.228 141.69 409.49 141.063 411.427 139.828C413.363 138.593 414.887 136.807 415.801 134.7Z" fill="white"/>
<defs>
<linearGradient id="paint0_linear_4883_119712" x1="-128.961" y1="-82.5" x2="535.539" y2="285" gradientUnits="userSpaceOnUse">
<stop stop-color="#D74512"/>
<stop offset="1" stop-color="#FDC323"/>
</linearGradient>
</defs>
</svg>
